<svg xml:space="preserve" style="enable-background:new 0 0 240.154 228.949;" viewBox="0 0 240.154 228.949" height="228.949px" width="240.154px" y="0px" x="0px" xmlns:xlink="http://www.w3.org/1999/xlink" xmlns="http://www.w3.org/2000/svg" id="Layer_1" version="1.1">
<path d="M80.36,87.159c0,30.076-11.201,54.458-20.908,54.458s-30.01-24.381-30.01-54.458
	C29.442,57.082,40.036,0,49.745,0C59.452,0,80.36,57.082,80.36,87.159z" style="fill:#F9DCBB;"></path>
<path d="M29.442,87.159c0,17.785,2.368,33.575,14.91,43.512l0,0c8.287,0,13.51,3.369,17.604-39.056
	C65.117,58.869,58.033,0,49.745,0c-0.763,0-1.65,0.467-2.629,1.327C38.219,10.04,29.442,59.782,29.442,87.159z" style="fill:#EEACA6;"></path>
<path d="M49.743,0c-0.762,0-1.648,0.467-2.628,1.327c-8.896,8.713-17.673,58.455-17.673,85.832
	c0,1.742,0.022,3.462,0.077,5.163c3.229-23.812,9.188-48.463,15.204-54.356c0.979-0.86,1.864-1.327,2.628-1.327
	c6.615,0,12.463,37.504,12.947,69.293c0.574-4.076,1.126-8.802,1.658-14.317C65.117,58.869,58.032,0,49.743,0z" style="fill:#D99D97;"></path>
<path d="M148.996,87.159c0,30.076,12.176,54.458,22.729,54.458s32.618-24.381,32.618-54.458
	C204.343,57.082,192.826,0,182.276,0C171.724,0,148.996,57.082,148.996,87.159z" style="fill:#F9DCBB;"></path>
<g style="opacity:0.55;enable-background:new    ;">
	<path d="M148.996,87.159c0-15.695,6.188-38.739,13.606-57.192c-0.001,0.007-0.002,0.012-0.002,0.019
		c-8.204,58.896,8.204,75.947,8.204,75.947c11.028-6.057,20.5-0.851,27.3,8.979c-7.335,15.984-19.385,26.705-26.381,26.705
		C161.172,141.617,148.996,117.235,148.996,87.159z" style="fill:#E6CBAC;"></path>
</g>
<path d="M204.343,87.159c0,17.785-2.57,33.575-16.203,43.512l0,0c-9.011,0-14.689,3.369-19.139-39.056
	C165.565,58.869,173.267,0,182.276,0c0.828,0,1.793,0.467,2.856,1.327C194.802,10.04,204.343,59.782,204.343,87.159z" style="fill:#EEACA6;"></path>
<path d="M182.276,0c0.828,0,1.793,0.467,2.856,1.327c9.668,8.713,19.209,58.455,19.209,85.832
	c0,1.742-0.021,3.462-0.082,5.163c-3.511-23.812-9.985-48.463-16.524-54.356c-1.063-0.86-2.026-1.327-2.857-1.327
	c-7.188,0-13.548,37.504-14.072,69.293c-0.627-4.076-1.227-8.802-1.805-14.317C165.565,58.869,173.267,0,182.276,0z" style="fill:#D99D97;"></path>
<g style="opacity:0.55;enable-background:new    ;">
	<path d="M80.36,87.159c0-15.695-5.693-38.739-12.519-57.192c0.001,0.007,0.001,0.012,0.004,0.019
		c7.548,58.896-7.548,75.947-7.548,75.947c-10.147-6.057-18.86-0.851-25.112,8.979c6.746,15.984,17.832,26.705,24.267,26.705
		C69.159,141.617,80.36,117.235,80.36,87.159z" style="fill:#E6CBAC;"></path>
</g>
<path d="M240.154,195.134C165.034,234.572,58.46,244.97,0,186.509c21.459-34.127,19.225-49.668,42.531-90.946
	c13.182-40.916,102.731-61.454,141.704-1.033C208.088,136.746,209.346,158.898,240.154,195.134z" style="fill:#F9DCBB;"></path>
<path d="M224.135,195.328c-65.869,39.201-159.318,49.539-210.578-8.574
	c18.816-33.924,16.856-49.375,37.294-90.406c11.558-40.673,90.08-61.091,124.252-1.028
	C196.016,137.285,197.119,159.305,224.135,195.328z" style="fill:#F9E9D6;"></path>
<path d="M82.002,142.761" style="fill:none;stroke:#000000;stroke-width:5;"></path>
<g>
	<path d="M112.563,139.647c0-28.339-15.372-51.314-34.333-51.314
		s-34.332,22.975-34.332,51.314c0,0,15.778,21.771,42.222,15.862C112.563,149.599,112.563,139.647,112.563,139.647z" style="opacity:0.43;fill:#8B5C29;enable-background:new    ;"></path>
	<path d="M109.743,138.307c0-24.878-14.268-45.045-31.867-45.045c-17.599,0-31.864,20.167-31.864,45.045
		c0,0,14.645,19.108,39.188,13.922C109.743,147.042,109.743,138.307,109.743,138.307z" style="fill:#FFFFFF;"></path>
	<ellipse ry="17.253" rx="15.619" cy="117.012" cx="77.018" style="fill:#48D0F0;"></ellipse>
	<path d="M98.792,104.338c2.04,4.175,3.199,8.932,3.199,13.982c0,16.562-12.417,29.986-27.733,29.986
		c-13.03,0-23.958-9.719-26.929-22.82c-0.853,4.064-1.316,8.366-1.316,12.821c0,0,14.645,19.108,39.188,13.922
		c24.544-5.187,24.544-13.922,24.544-13.922C109.743,124.748,105.499,112.596,98.792,104.338z" style="fill:#EDEDED;"></path>
	<ellipse ry="9.447" rx="8.553" cy="107.564" cx="69.952" style="fill:#FFFFFF;"></ellipse>
</g>
<g>
	<path d="M185.558,139.647c0-28.339-15.632-51.314-34.911-51.314
		c-19.281,0-34.912,22.975-34.912,51.314c0,0,16.045,21.771,42.936,15.862C185.558,149.599,185.558,139.647,185.558,139.647z" style="opacity:0.43;fill:#8B5C29;enable-background:new    ;"></path>
	<path d="M183.028,138.307c0-24.878-14.267-45.045-31.867-45.045c-17.598,0-31.864,20.167-31.864,45.045
		c0,0,14.647,19.108,39.19,13.922C183.028,147.042,183.028,138.307,183.028,138.307z" style="fill:#FFFFFF;"></path>
	<ellipse ry="17.253" rx="15.618" cy="116.361" cx="150.305" style="fill:#48D0F0;"></ellipse>
	<path d="M172.079,104.338c2.038,4.175,3.197,8.932,3.197,13.982c0,16.562-12.415,29.986-27.731,29.986
		c-13.03,0-23.959-9.719-26.932-22.82c-0.852,4.064-1.316,8.366-1.316,12.821c0,0,14.647,19.108,39.19,13.922
		c24.541-5.187,24.541-13.922,24.541-13.922C183.028,124.748,178.784,112.596,172.079,104.338z" style="fill:#EDEDED;"></path>
	<ellipse ry="9.448" rx="8.553" cy="106.914" cx="143.238" style="fill:#FFFFFF;"></ellipse>
</g>
<ellipse ry="25.531" rx="13.953" cy="186.384" cx="116.304" style="fill:#BF6161;"></ellipse>
<path d="M115.591,184.742c5.609,0,10.437,6.074,12.651,14.814c1.271-3.852,2.016-8.346,2.016-13.172
	c0-14.1-6.244-25.53-13.952-25.53s-13.955,11.433-13.955,25.53c0,3.832,0.475,7.455,1.302,10.718
	C106.095,189.705,110.52,184.742,115.591,184.742z" style="fill:#824242;"></path>
<ellipse ry="9.313" rx="22.774" cy="169.005" cx="117.766" style="fill:#A3907A;"></ellipse>
<g>
	<path d="M118.191,167.408c0,3.713-3.694,6.721-11.292,6.721c-7.6,0-13.758-3.008-13.758-6.721
		c0-3.712,6.158-6.72,13.758-6.72C114.497,160.688,118.191,163.696,118.191,167.408z" style="fill:#E6CBAC;"></path>
	<path d="M116.505,166.345c0,3.031-2.908,3.025-9.537,3.025c-6.627,0-12,0.006-12-3.025
		c0-3.032,5.373-5.491,12-5.491C113.596,160.854,116.505,163.313,116.505,166.345z" style="fill:#FDF2E5;"></path>
</g>
<g>
	<path d="M117.389,167.408c0,3.713,3.694,6.721,11.293,6.721c7.598,0,13.757-3.008,13.757-6.721
		c0-3.712-6.159-6.72-13.757-6.72C121.084,160.688,117.389,163.696,117.389,167.408z" style="fill:#E6CBAC;"></path>
	<path d="M119.075,166.345c0,3.031,2.909,3.025,9.538,3.025c6.628,0,12.001,0.006,12.001-3.025
		c0-3.032-5.373-5.491-12.001-5.491C121.983,160.854,119.075,163.313,119.075,166.345z" style="fill:#FDF2E5;"></path>
</g>
<path d="M128.183,160.63c0,3.177-5.334,9.449-11.913,9.449s-11.913-6.272-11.913-9.449
	c0-3.176,5.333-3.285,11.913-3.285C122.849,157.345,128.183,157.455,128.183,160.63z" style="fill:#3F3F3F;"></path>
<path d="M121.198,160.664c0,1.469-2.08,2.658-4.642,2.658c-2.566,0-4.646-1.189-4.646-2.658
	c0-1.468,2.079-1.426,4.646-1.426C119.119,159.238,121.198,159.196,121.198,160.664z" style="fill:#8C8C8C;"></path>
<path d="M0,186.509c59.635,59.636,160.091,50.658,240.154,8.625C174.214,216.318,63.802,221.687,0,186.509z" style="fill:#E5CFB5;"></path>
<path d="M104.702,211.556c0,0,2.221,10.027,10.657,10.027c8.436,0,12.797-9.642,12.797-9.642L104.702,211.556
	z" style="fill:#BFAD97;"></path>
<path d="M129.388,207.44c0,5.843-5.751,10.577-12.848,10.577c-7.096,0-12.847-4.734-12.847-10.577
	s5.515,4.476,12.611,4.476C123.4,211.916,129.388,201.597,129.388,207.44z" style="fill:#F9E9D6;"></path>
<path d="M203.783,204.314l-24.835-7.534c0,0,43.543,5.75,61.206-1.646
	C240.154,195.134,222.868,204.314,203.783,204.314z" style="fill:#E5CFB5;"></path>
<path d="M13.556,191.563c0,0,14.224,7.104,42.157,0c0,0-27.524,20.009-27.524,16.133
	C28.188,203.821,13.556,191.563,13.556,191.563z" style="fill:#E5CFB5;"></path>
<path d="M90.561,60.864c0,0,21.841-0.454,21.841,17.243c0,0,4.07-18.606,16.412-18.606
	C128.813,59.5,118.837,52.005,90.561,60.864z" style="fill:#F9DCBB;"></path>
<path d="M21.797,170.3c0,0,2.695-20.352,20.771-13.778c18.074,6.571,32.863,10.681,36.971,6.571
	c0,0-28.755,20.539-44.365,20.539c0,0,12.542-7.996,15.609-15.608c0,0-19.691,14.993-37.227,18.729L21.797,170.3z" style="fill:#F9F4EF;"></path>
<path d="M207.542,169.515c0,0-9.21-19.564-21.556-12.993c-16.977,9.038-32.861,10.681-36.971,6.571
	c0,0,28.756,20.539,44.363,20.539c0,0-12.539-7.996-15.607-15.608c0,0,22.695,14.993,40.231,18.729L207.542,169.515z" style="fill:#F9F4EF;"></path>
<path d="M116.027,214.201c-5.332,0-10.239-2.039-14.219-5.445c3.5,5.66,8.562,9.24,14.218,9.24
	c5.653,0,10.716-3.58,14.215-9.24C126.263,212.162,121.354,214.201,116.027,214.201z" style="fill:#F9F4EF;"></path>
</svg>
